# xmcd
#
# Track frame offsets:
#	150
#	20246
#	36733
#	42692
#	63570
#	66496
#	91086
#	93230
#	121055
#	150497
#	179024
#	180968
#	211254
#	223871
#	252886
#	260556
#	287995
#	305345
#	317843
#
# Disc length: 4437 seconds
#
# Revision: 1
# Processed by: cddbd v1.5.2PL0 Copyright (c) Steve Scherf et al.
# Submitted via: audiograbber 1.83.01
#
DISCID=23115313
DTITLE=La Rata Blusera - La Rata Blusera
DYEAR=2006
DGENRE=Blues
TTITLE0=Blueskupovic
TTITLE1=No Hay Por Qué
TTITLE2=Intro Santa Lucía
TTITLE3=Santa Lucía
TTITLE4=Presentación Libertad
TTITLE5=Libertad
TTITLE6=Presentación La Daga
TTITLE7=La Daga
TTITLE8=Yo Voy
TTITLE9=Del Sur
TTITLE10=Agradecimientos CCM
TTITLE11=Mi Pequeño Gallo Rojo
TTITLE12=Botablues
TTITLE13=I'm Ready
TTITLE14=Presentación Banda y Staff
TTITLE15=Got My Mojo Working
TTITLE16=Todo Mal (bonus track)
TTITLE17=La Extremaunción (bonus track)
TTITLE18=Blues de la Transición (bonus track)
EXTD=www.laratablusera.com
EXTT0=
EXTT1=
EXTT2=
EXTT3=
EXTT4=
EXTT5=
EXTT6=
EXTT7=
EXTT8=
EXTT9=
EXTT10=
EXTT11=
EXTT12=
EXTT13=
EXTT14=
EXTT15=
EXTT16=
EXTT17=
EXTT18=
PLAYORDER=
